<svg viewBox="0 0 24 24" xmlns="http://www.w3.org/2000/svg"><path fill="#1793D1" d="M11.513 1.253a1.597 1.597 0 0 0-.96.642L.03 21.282a1.6 1.6 0 0 0 .825 2.373 1.6 1.6 0 0 0 1.542-.257l6.634-5.184 2.102-1.644-1.844-3.824-1.226 2.062a.4.4 0 0 1-.587.1l-.81-.628a.4.4 0 0 1-.035-.611l4.086-6.842a.4.4 0 0 1 .689 0l4.085 6.842a.4.4 0 0 1-.035.611l-.81.628a.4.4 0 0 1-.587-.1l-1.226-2.062-1.844 3.824 2.102 1.644 6.634 5.184a1.6 1.6 0 0 0 1.542.257 1.6 1.6 0 0 0 .825-2.373L12.473 1.895a1.597 1.597 0 0 0-.96-.642z"/></svg>