<svg viewBox="0 0 24 24" xmlns="http://www.w3.org/2000/svg"><path fill="#E8F1FF" d="M12.152 6.896c-.948 0-2.415-1.078-3.96-1.04-2.04.027-3.91 1.183-4.961 3.014-2.117 3.675-.546 9.103 1.519 12.09 1.013 1.454 2.208 3.126 3.805 3.072 1.512-.054 2.104-.974 3.94-.974 1.821 0 2.372.974 3.961.947 1.627-.026 2.65-1.541 3.636-3.003 1.144-1.671 1.616-3.292 1.642-3.375-.035-.015-3.153-1.21-3.181-4.83-.027-3.033 2.477-4.498 2.585-4.561-1.428-2.083-3.626-2.368-4.406-2.42-1.85-.18-3.714 1.085-4.577 1.085zm1.261-3.66c.824-.999 1.38-2.387 1.23-3.774-1.181.048-2.63.787-3.486 1.782-.767.89-1.412 2.316-1.237 3.676 1.32.102 2.668-.686 3.493-1.684z"/></svg>